#!OML:ASF E:\motion texture\Top Level 1\Subject 1\Session 1\male.ASF
:FULLY-SPECIFIED
:DEGREES
354
root -15.3387 18.2081 2.79979 469.5 -80.9838 -462.853
lowerback -2.33634 0.312401 8.30736
upperback -2.60949 0.143406 5.25612
thorax -1.37776 -0.107722 0.788319
lowerneck -9.92031 -4.94921 -6.03707
upperneck 18.0233 -7.2113 6.11623
head 7.61562 -3.4171 2.28754
rclavicle 9.742e-015 -5.08889e-014
rhumerus 5.49323 12.6028 -54.6921
rradius 104.921
rwrist 2.48385
rhand -14.2448 -22.2719
rfingers 7.12502
rthumb 11.893 -51.9141
lclavicle 9.742e-015 -5.08889e-014
lhumerus -2.10358 -16.4844 71.496
lradius 102.258
lwrist -17.6198
lhand -24.1449 21.1627
lfingers 7.12502
lthumb 2.33746 51.1296
rfemur -3.2332 1.73292 32.4155
rtibia 13.9104
rfoot -10.1216 -7.09766
rtoes 16.3649
lfemur -29.0397 3.56818 -5.6347
ltibia 34.9036
lfoot -8.80599 8.63315
ltoes -16.5221
355
root -15.4671 18.1972 2.79544 470.612 -80.9186 -463.761
lowerback -2.41098 0.354702 8.30481
upperback -2.63941 0.193249 5.2148
thorax -1.36441 -0.0831826 0.747617
lowerneck -10.0683 -4.89766 -5.98584
upperneck 17.9284 -7.12901 6.12246
head 7.60389 -3.36896 2.2869
rclavicle 2.36057e-015 5.08889e-014
rhumerus 3.77991 12.7839 -55.8672
rradius 102.905
rwrist 2.29387
rhand -14.2101 -22.3009
rfingers 7.12502
rthumb 11.9265 -51.9412
lclavicle 2.36057e-015 5.08889e-014
lhumerus -4.09894 -15.6718 72.7551
lradius 100.352
lwrist -17.1343
lhand -23.8739 20.9178
lfingers 7.12502
lthumb 2.59918 50.8817
rfemur -2.96128 1.90144 32.5163
rtibia 13.8426
rfoot -10.3504 -7.26697
rtoes 15.9692
lfemur -29.0846 3.33582 -5.50091
ltibia 32.5703
lfoot -8.43687 9.16275
ltoes -16.4362
356
root -15.5972 18.1849 2.79189 471.686 -80.8505 -464.622
lowerback -2.50789 0.398716 8.3049
upperback -2.66628 0.242231 5.17173
thorax -1.33532 -0.0586342 0.703744
lowerneck -10.2314 -4.84879 -5.93809
upperneck 17.8587 -7.05331 6.13734
head 7.60409 -3.32321 2.28862
rclavicle -2.36678e-015 1.19271e-014
rhumerus 2.07295 12.8418 -57.0888
rradius 100.745
rwrist 2.05048
rhand -14.1762 -22.3961
rfingers 7.12502
rthumb 11.9592 -52.0345
lclavicle -2.36678e-015 1.19271e-014
lhumerus -6.04079 -14.7087 73.9966
lradius 98.3063
lwrist -16.6283
lhand -23.5318 20.6691
lfingers 7.12502
lthumb 2.92951 50.6287
rfemur -2.68516 2.05563 32.6119
rtibia 13.7724
rfoot -10.5806 -7.43279
rtoes 15.5042
lfemur -29.0943 3.06406 -5.3482
ltibia 30.1803
lfoot -8.06087 9.60969
ltoes -16.3812
357
root -15.7284 18.1714 2.78903 472.692 -80.7779 -465.406
lowerback -2.61571 0.446123 8.30994
upperback -2.69799 0.294534 5.12781
thorax -1.3049 -0.0326522 0.656518
lowerneck -10.4003 -4.80431 -5.89098
upperneck 17.8134 -6.98673 6.15633
head 7.61411 -3.28153 2.29071
rclavicle -6.44187e-015 -2.54444e-014
rhumerus 0.366076 12.761 -58.3461
rradius 98.4399
rwrist 1.78454
rhand -14.1513 -22.538
rfingers 7.12502
rthumb 11.9832 -52.175
lclavicle -6.44187e-015 -2.54444e-014
lhumerus -7.92478 -13.6094 75.2054
lradius 96.1249
lwrist -16.1406
lhand -23.1392 20.4649
lfingers 7.12502
lthumb 3.30867 50.419
rfemur -2.41446 2.18986 32.7022
rtibia 13.7063
rfoot -10.8113 -7.57933
rtoes 14.9806
lfemur -29.0849 2.74798 -5.16899
ltibia 27.7641
lfoot -7.71968 9.96127
ltoes -16.3527
358
root -15.8605 18.1565 2.78703 473.629 -80.6959 -466.109
lowerback -2.72904 0.49525 8.32611
upperback -2.73724 0.348473 5.08651
thorax -1.27907 -0.00649174 0.606149
lowerneck -10.5789 -4.76143 -5.8469
upperneck 17.7952 -6.92415 6.17596
head 7.63512 -3.24178 2.29289
rclavicle -8.26199e-015 5.56597e-015
rhumerus -1.32897 12.5359 -59.6272
rradius 96.0123
rwrist 1.48767
rhand -14.0635 -22.7888
rfingers 7.12502
rthumb 12.0678 -52.4209
lclavicle -8.26199e-015 5.56597e-015
lhumerus -9.73835 -12.361 76.3611
lradius 93.7969
lwrist -15.7186
lhand -22.7247 20.2973
lfingers 7.12502
lthumb 3.70892 50.2448
rfemur -2.15594 2.30175 32.7885
rtibia 13.6498
rfoot -11.0385 -7.68484
rtoes 14.4041
lfemur -29.0683 2.38033 -4.95355
ltibia 25.3491
lfoot -7.4489 10.2222
ltoes -16.3049
359
root -15.9936 18.1405 2.78609 474.498 -80.6011 -466.734
lowerback -2.84386 0.545647 8.35901
upperback -2.7847 0.403778 5.04836
thorax -1.2608 0.0194779 0.550111
lowerneck -10.7622 -4.71949 -5.79829
upperneck 17.7994 -6.86425 6.18777
head 7.66414 -3.20369 2.29143
rclavicle 9.44848e-015 -5.80451e-014
rhumerus -3.00103 12.1606 -60.9201
rradius 93.4703
rwrist 1.19965
rhand -13.9084 -23.1494
rfingers 7.12502
rthumb 12.2174 -52.7726
lclavicle 9.44848e-015 -5.80451e-014
lhumerus -11.4741 -10.9677 77.4426
lradius 91.3193
lwrist -15.3761
lhand -22.3437 20.1753
lfingers 7.12502
lthumb 4.07691 50.116
rfemur -1.91273 2.39517 32.8717
rtibia 13.6116
rfoot -11.2616 -7.73734
rtoes 13.7617
lfemur -29.0493 1.95244 -4.69474
ltibia 22.9586
lfoot -7.2541 10.4077
ltoes -16.2176
360
root -16.1282 18.1233 2.78652 475.305 -80.4945 -467.294
lowerback -2.96282 0.597126 8.41125
upperback -2.83743 0.459537 5.01232
thorax -1.24551 0.0449493 0.485872
lowerneck -10.9376 -4.67688 -5.74353
upperneck 17.8123 -6.80485 6.19266
head 7.69415 -3.16634 2.28687
rclavicle -9.62863e-016 -2.8625e-014
rhumerus -4.64699 11.6335 -62.2097
rradius 90.8255
rwrist 0.942027
rhand -13.7181 -23.5839
rfingers 7.12502
rthumb 12.4009 -53.1961
lclavicle -9.62863e-016 -2.8625e-014
lhumerus -13.115 -9.43325 78.433
lradius 88.6905
lwrist -15.1269
lhand -21.9628 20.1493
lfingers 7.12502
lthumb 4.44468 50.0827
rfemur -1.68133 2.47567 32.9491
rtibia 13.598
rfoot -11.4954 -7.7328
rtoes 13.1164
lfemur -29.027 1.45311 -4.39128
ltibia 20.6133
lfoot -7.12812 10.5501
ltoes -16.0987
361
root -16.2643 18.1053 2.78839 476.103 -80.3704 -467.846
lowerback -3.07965 0.651555 8.48338
upperback -2.89153 0.518596 4.98043
thorax -1.2325 0.0714272 0.415254
lowerneck -11.1065 -4.63229 -5.68561
upperneck 17.8268 -6.74334 6.19324
head 7.72323 -3.12836 2.28083
rclavicle -6.83322e-015 0
rhumerus -6.24994 10.9551 -63.4757
rradius 88.0847
rwrist 0.727575
rhand -13.5142 -24.0661
rfingers 7.12502
rthumb 12.5975 -53.6663
lclavicle -6.83322e-015 0
lhumerus -14.6581 -7.75752 79.3192
lradius 85.9183
lwrist -15.0062
lhand -21.5583 20.2254
lfingers 7.12502
lthumb 4.83527 50.1502
rfemur -1.46409 2.56341 33.0242
rtibia 13.6253
rfoot -11.7372 -7.67805
rtoes 12.4312
lfemur -29.0035 0.888851 -4.03735
ltibia 18.345
lfoot -7.05135 10.6904
ltoes -15.9695
362
root -16.4032 18.0862 2.79217 476.894 -80.2356 -468.398
lowerback -3.20413 0.70801 8.57445
upperback -2.94116 0.578102 4.95028
thorax -1.21027 0.0980301 0.336285
lowerneck -11.2589 -4.58494 -5.62761
upperneck 17.8265 -6.67832 6.19534
head 7.7443 -3.08902 2.27609
rclavicle -7.23079e-015 -2.46493e-014
rhumerus -7.79784 10.1247 -64.7007
rradius 85.2473
rwrist 0.569425
rhand -13.3026 -24.5642
rfingers 7.12502
rthumb 12.8015 -54.1517
lclavicle -7.23079e-015 -2.46493e-014
lhumerus -16.1019 -5.94797 80.09
lradius 83.0124
lwrist -15.0598
lhand -21.129 20.4407
lfingers 7.12502
lthumb 5.24983 50.3557
rfemur -1.24565 2.64063 33.0856
rtibia 13.6865
rfoot -11.9843 -7.56019
rtoes 11.6887
lfemur -28.9692 0.261624 -3.64926
ltibia 16.1712
lfoot -6.99511 10.8578
ltoes -15.85
363
root -16.5439 18.0664 2.79758 477.697 -80.0949 -468.972
lowerback -3.31746 0.768158 8.67244
upperback -2.9901 0.643365 4.92217
thorax -1.19305 0.127166 0.255904
lowerneck -11.3913 -4.53847 -5.57334
upperneck 17.8038 -6.61387 6.2003
head 7.75473 -3.05046 2.27334
rclavicle -3.66509e-015 -4.13472e-014
rhumerus -9.28855 9.14167 -65.8634
rradius 82.3133
rwrist 0.504484
rhand -13.0831 -25.0669
rfingers 7.12502
rthumb 13.0131 -54.641
lclavicle -3.66509e-015 -4.13472e-014
lhumerus -17.4567 -4.01354 80.7446
lradius 79.9885
lwrist -15.3396
lhand -20.6503 20.7792
lfingers 7.12502
lthumb 5.71199 50.6822
rfemur -1.03464 2.72763 33.1319
rtibia 13.7937
rfoot -12.2343 -7.40901
rtoes 10.8534
lfemur -28.9459 -0.398776 -3.24038
ltibia 14.1561
lfoot -6.95305 11.0732
ltoes -15.7888
